Coordinates
version=1
nRows=6
nColumns=63
inDegrees=yes

Units are S.I. units (second, meters, Newtons, ...)
If the header above contains a line with 'inDegrees', this indicates whether rotational values are in degrees (yes) or radians (no).

endheader
time	pelvis_tilt	pelvis_list	pelvis_rotation	pelvis_tx	pelvis_ty	pelvis_tz	hip_flexion_r	hip_adduction_r	hip_rotation_r	knee_angle_r	knee_angle_r_beta	ankle_angle_r	subtalar_angle_r	mtp_angle_r	hip_flexion_l	hip_adduction_l	hip_rotation_l	knee_angle_l	knee_angle_l_beta	ankle_angle_l	subtalar_angle_l	mtp_angle_l	L5_S1_Flex_Ext	L5_S1_Lat_Bending	L5_S1_axial_rotation	L4_L5_Flex_Ext	L4_L5_Lat_Bending	L4_L5_axial_rotation	L3_L4_Flex_Ext	L3_L4_Lat_Bending	L3_L4_axial_rotation	L2_L3_Flex_Ext	L2_L3_Lat_Bending	L2_L3_axial_rotation	L1_L2_Flex_Ext	L1_L2_Lat_Bending	L1_L2_axial_rotation	L1_T12_Flex_Ext	L1_T12_Lat_Bending	L1_T12_axial_rotation	Abs_r3	Abs_r2	Abs_r1	Abs_t1	Abs_t2	neck_flexion	neck_bending	neck_rotation	arm_flex_r	arm_add_r	arm_rot_r	elbow_flex_r	pro_sup_r	wrist_flex_r	wrist_dev_r	arm_flex_l	arm_add_l	arm_rot_l	elbow_flex_l	pro_sup_l	wrist_flex_l	wrist_dev_l
      0.00000000	      2.22201706	     -2.86084989	     99.97742180	      0.00646199	      0.96279072	      0.79024962	      7.17234553	     -1.48209351	     -1.27815283	      5.83334906	      0.10181115	     24.87657756	     -1.07618289	      0.00000000	      7.27036938	      1.90803605	     13.99524778	      1.81298463	      0.03164255	     21.67254866	     -8.21312784	      0.00000000	      0.41405468	     -0.16307931	     -1.00968114	      0.76894095	     -0.21689548	     -1.07278621	      0.68025044	     -0.39651102	     -1.07278621	      0.47322309	     -0.39651102	     -0.88347100	      0.38449118	     -0.33255132	     -0.82036593	      0.23659084	     -0.25260984	     -0.75726086	      2.95755118	     -1.84478572	     -5.61554360	      0.00000000	      0.00000000	     28.05154592	      9.95237121	      1.44703621	     11.61213938	     -9.71598442	     68.58980200	     37.81438552	      8.69102000	      3.91997139	     -0.04169718	     10.37351436	    -14.52223403	     59.16920102	     44.53543824	     85.77324756	      5.07847831	     -8.50465696
      0.01694915	      2.27664604	     -2.71832006	     99.06662940	      0.00715100	      0.96289499	      0.78835544	      7.14597632	     -1.31403363	     -0.75135569	      5.56722726	      0.09716645	     25.38549693	     -0.74236810	      0.00000000	      7.12778243	      1.74777476	     12.34500855	      2.09092559	      0.03649354	     21.74892640	     -7.78556147	      0.00000000	      0.44660466	     -0.13799095	     -0.75603332	      0.82938951	     -0.18352796	     -0.80328540	      0.73372679	     -0.33551119	     -0.80328540	      0.51042447	     -0.33551119	     -0.66152916	      0.41471709	     -0.28139114	     -0.61427707	      0.25518990	     -0.21374797	     -0.56702499	      3.19005242	     -1.56098118	     -4.20483052	      0.00000000	      0.00000000	     28.10573879	      9.65946921	      1.07857648	     11.26191345	    -10.57842080	     69.55308822	     38.69086818	     10.31413850	      3.72835878	     -3.08708501	     10.08597785	    -14.09459370	     59.09831666	     44.39577753	     86.98296010	      4.71351413	     -9.51847586
      0.03389831	      2.26285587	     -2.52520633	     98.32929733	      0.00771472	      0.96329942	      0.78696332	      7.06696080	     -1.24065440	     -0.51512310	      5.50990193	      0.09616593	     25.78912663	     -0.17284398	      0.00000000	      6.96286578	      1.66056238	     10.58424196	      2.40473887	      0.04197061	     22.07524691	     -6.55225461	      0.00000000	      0.45874757	     -0.12331676	     -0.60674789	      0.85194012	     -0.16401129	     -0.64466964	      0.75367639	     -0.29983237	     -0.64466964	      0.52430260	     -0.29983237	     -0.53090441	      0.42599300	     -0.25146753	     -0.49298266	      0.26212836	     -0.19101766	     -0.45506092	      3.27678804	     -1.39498384	     -3.37454976	      0.00000000	      0.00000000	     28.12825444	      9.41284307	      0.71446706	     11.27516768	    -11.00040778	     70.07689689	     39.13295881	     11.86095715	      3.46540470	     -4.19290237	     10.24126648	    -13.92460177	     59.33264733	     44.12750816	     87.25342802	      5.46909533	    -10.19510132
      0.05084746	      2.22844846	     -2.44281745	     98.13810695	      0.00758754	      0.96375291	      0.78581166	      6.99779068	     -1.24604450	     -0.52750493	      5.50180861	      0.09602468	     25.87623866	     -0.18412626	      0.00000000	      6.84333860	      1.67354612	     10.57326822	      2.49505913	      0.04354700	     22.02817580	     -6.52228601	      0.00000000	      0.48206879	     -0.11580533	     -0.62178822	      0.89524996	     -0.15402108	     -0.66064999	      0.79199082	     -0.28156907	     -0.66064999	      0.55095642	     -0.28156907	     -0.54406470	      0.44764908	     -0.23615022	     -0.50520293	      0.27545411	     -0.17938245	     -0.46634117	      3.44336918	     -1.31001302	     -3.45819957	      0.00000000	      0.00000000	     28.11756283	      9.41649061	      0.69648583	     11.34071232	    -10.97749023	     70.04996958	     39.21077788	     11.88160610	      3.49069630	     -4.17842382	     10.32598455	    -13.98786579	     59.33948709	     44.11927503	     87.25313302	      5.51571095	    -10.20153648
      0.06779661	      2.15865872	     -2.17933660	     97.49283724	      0.00817539	      0.96438534	      0.78490172	      6.90186266	     -1.29698654	     -1.35313441	      5.85263034	      0.10214767	     26.45516977	      1.92897896	      0.00000000	      6.69353440	      1.65523212	      8.66441295	      3.00029703	      0.05236506	     22.80653476	     -4.69334903	      0.00000000	      0.46581660	     -0.11065431	     -0.51679773	      0.86506800	     -0.14717024	     -0.54909759	      0.76529009	     -0.26904490	     -0.54909759	      0.53238179	     -0.26904490	     -0.45219801	      0.43255729	     -0.22564628	     -0.41989816	      0.26616760	     -0.17140353	     -0.38759830	      3.32728137	     -1.25174373	     -2.87427394	      0.00000000	      0.00000000	     28.11944328	      9.11528970	      0.26655756	     10.95395966	    -10.97532556	     67.18472255	     39.47477904	     14.11386046	      3.91460660	     -1.08533575	     11.27158460	    -13.96263065	     60.15620425	     43.43775971	     86.60235514	      8.49224404	    -10.54086400
      0.08474576	      2.15454211	     -1.93355902	     97.19676057	      0.00852581	      0.96511000	      0.78450585	      6.78863798	     -1.25048150	     -1.26548132	      6.22252653	      0.10860358	     26.57487657	      2.20696318	      0.00000000	      6.51479851	      1.60923683	      8.73507832	      3.28899308	      0.05740376	     22.96616273	     -4.78131718	      0.00000000	      0.44051188	     -0.10037912	     -0.56634767	      0.81807462	     -0.13350423	     -0.60174440	      0.72371697	     -0.24406179	     -0.60174440	      0.50346103	     -0.24406179	     -0.49555421	      0.40905933	     -0.20469310	     -0.46015748	      0.25170849	     -0.15548726	     -0.42476075	      3.14653233	     -1.13550869	     -3.14985584	      0.00000000	      0.00000000	     28.09901731	      9.10037971	      0.37893494	     11.55907139	    -10.68345415	     67.18013393	     39.23156927	     14.32159716	      3.90351135	      0.19182072	     12.04247291	    -14.19891365	     60.70987863	     43.16892917	     86.14447411	      9.69540355	    -10.54464399
